<?xml version="1.0" ?><svg height="32" id="svg4050" version="1.1" viewBox="0 0 32 32.000001" width="32" xmlns="http://www.w3.org/2000/svg" xmlns:cc="http://creativecommons.org/ns#" xmlns:dc="http://purl.org/dc/elements/1.1/" xmlns:inkscape="http://www.inkscape.org/namespaces/inkscape" xmlns:rdf="http://www.w3.org/1999/02/22-rdf-syntax-ns#" xmlns:sodipodi="http://sodipodi.sourceforge.net/DTD/sodipodi-0.dtd" xmlns:svg="http://www.w3.org/2000/svg"><defs id="defs4052"/><g id="layer1" transform="translate(0,-1020.3622)"><path d="M 6 6.9980469 C 4.9006494 6.9980469 4 7.8986469 4 8.9980469 L 4 22.998047 C 4 24.097347 4.9006494 24.998047 6 24.998047 L 7.4238281 24.998047 A 0.50005 0.50005 0 0 0 7.5761719 24.998047 L 24.423828 24.998047 A 0.50005 0.50005 0 0 0 24.576172 24.998047 L 26 24.998047 C 27.099351 24.998047 28 24.097347 28 22.998047 L 28 8.9980469 C 28 7.8986469 27.099351 6.9980469 26 6.9980469 L 24.523438 6.9980469 L 7.5 6.9980469 L 6 6.9980469 z M 6 7.9980469 L 7.3222656 7.9980469 L 15.681641 14.882812 A 0.50005 0.50005 0 0 0 16.318359 14.882812 L 24.677734 7.9980469 L 26 7.9980469 C 26.562647 7.9980469 27 8.4353469 27 8.9980469 L 27 22.998047 C 27 23.560647 26.562647 23.998047 26 23.998047 L 25 23.998047 L 25 10.998047 A 0.50005 0.50005 0 0 0 24.181641 10.611328 L 16 17.349609 L 7.8183594 10.611328 A 0.50005 0.50005 0 0 0 7.4941406 10.498047 A 0.50005 0.50005 0 0 0 7 10.998047 L 7 23.998047 L 6 23.998047 C 5.4373528 23.998047 5 23.560647 5 22.998047 L 5 8.9980469 C 5 8.4353469 5.4373528 7.9980469 6 7.9980469 z M 8.8945312 7.9980469 L 23.105469 7.9980469 L 16 13.849609 L 8.8945312 7.9980469 z M 8 12.056641 L 15.681641 18.382812 A 0.50005 0.50005 0 0 0 16.318359 18.382812 L 24 12.056641 L 24 23.998047 L 8 23.998047 L 8 12.056641 z " id="rect4882" style="color:#000000;font-style:normal;font-variant:normal;font-weight:normal;font-stretch:normal;font-size:medium;line-height:normal;font-family:sans-serif;text-indent:0;text-align:start;text-decoration:none;text-decoration-line:none;text-decoration-style:solid;text-decoration-color:#000000;letter-spacing:normal;word-spacing:normal;text-transform:none;direction:ltr;block-progression:tb;writing-mode:lr-tb;baseline-shift:baseline;text-anchor:start;white-space:normal;clip-rule:nonzero;display:inline;overflow:visible;visibility:visible;opacity:1;isolation:auto;mix-blend-mode:normal;color-interpolation:sRGB;color-interpolation-filters:linearRGB;solid-color:#000000;solid-opacity:1;fill:#000000;fill-opacity:1;fill-rule:nonzero;stroke:none;stroke-width:1;stroke-linecap:round;stroke-linejoin:round;stroke-miterlimit:4.0999999;stroke-dasharray:none;stroke-dashoffset:0;stroke-opacity:1;color-rendering:auto;image-rendering:auto;shape-rendering:auto;text-rendering:auto;enable-background:accumulate" transform="translate(0,1020.3622)"/></g></svg>